<mxfile host="app.diagrams.net" modified="2024-01-01T00:00:00.000Z" agent="CompareToUT Documentation" etag="2" version="24.0.0" type="device">
  <diagram name="DB Dependencies" id="db-dependencies">
    <mxGraphModel dx="2200" dy="1200" grid="1" gridSize="10" guides="1" tooltips="1" connect="1" arrows="1" fold="1" page="1" pageScale="1" pageWidth="2400" pageHeight="1600" math="0" shadow="0">
      <root>
        <mxCell id="0" />
        <mxCell id="1" parent="0" />
        
        <!-- UI Components Layer -->
        <mxCell id="ui-main-comparison" value="Main Comparison Activity" style="rounded=1;whiteSpace=wrap;html=1;fillColor=#E1D5E7;strokeColor=#9673A6;fontColor=#000000;" vertex="1" parent="1">
          <mxGeometry x="100" y="100" width="180" height="60" as="geometry" />
        </mxCell>
        
        <mxCell id="ui-price-plan" value="Price Plan Management" style="rounded=1;whiteSpace=wrap;html=1;fillColor=#E1D5E7;strokeColor=#9673A6;fontColor=#000000;" vertex="1" parent="1">
          <mxGeometry x="320" y="100" width="180" height="60" as="geometry" />
        </mxCell>
        
        <mxCell id="ui-scenario" value="Scenario Management" style="rounded=1;whiteSpace=wrap;html=1;fillColor=#E1D5E7;strokeColor=#9673A6;fontColor=#000000;" vertex="1" parent="1">
          <mxGeometry x="540" y="100" width="180" height="60" as="geometry" />
        </mxCell>
        
        <mxCell id="ui-battery" value="Battery Package" style="rounded=1;whiteSpace=wrap;html=1;fillColor=#E1D5E7;strokeColor=#9673A6;fontColor=#000000;" vertex="1" parent="1">
          <mxGeometry x="760" y="100" width="180" height="60" as="geometry" />
        </mxCell>
        
        <mxCell id="ui-panel" value="Panel Package" style="rounded=1;whiteSpace=wrap;html=1;fillColor=#E1D5E7;strokeColor=#9673A6;fontColor=#000000;" vertex="1" parent="1">
          <mxGeometry x="980" y="100" width="180" height="60" as="geometry" />
        </mxCell>
        
        <mxCell id="ui-inverter" value="Inverter Package" style="rounded=1;whiteSpace=wrap;html=1;fillColor=#E1D5E7;strokeColor=#9673A6;fontColor=#000000;" vertex="1" parent="1">
          <mxGeometry x="1200" y="100" width="180" height="60" as="geometry" />
        </mxCell>
        
        <mxCell id="ui-ev" value="EV Package" style="rounded=1;whiteSpace=wrap;html=1;fillColor=#E1D5E7;strokeColor=#9673A6;fontColor=#000000;" vertex="1" parent="1">
          <mxGeometry x="1420" y="100" width="180" height="60" as="geometry" />
        </mxCell>
        
        <mxCell id="ui-water" value="Water Package" style="rounded=1;whiteSpace=wrap;html=1;fillColor=#E1D5E7;strokeColor=#9673A6;fontColor=#000000;" vertex="1" parent="1">
          <mxGeometry x="1640" y="100" width="180" height="60" as="geometry" />
        </mxCell>
        
        <mxCell id="ui-loadprofile" value="Load Profile Package" style="rounded=1;whiteSpace=wrap;html=1;fillColor=#E1D5E7;strokeColor=#9673A6;fontColor=#000000;" vertex="1" parent="1">
          <mxGeometry x="1860" y="100" width="180" height="60" as="geometry" />
        </mxCell>
        
        <mxCell id="ui-loadshift" value="Load Shift Package" style="rounded=1;whiteSpace=wrap;html=1;fillColor=#E1D5E7;strokeColor=#9673A6;fontColor=#000000;" vertex="1" parent="1">
          <mxGeometry x="2080" y="100" width="180" height="60" as="geometry" />
        </mxCell>
        
        <!-- Worker Classes Layer -->
        <mxCell id="worker-costing" value="CostingWorker" style="rounded=1;whiteSpace=wrap;html=1;fillColor=#FFE6CC;strokeColor=#D79B00;fontColor=#000000;" vertex="1" parent="1">
          <mxGeometry x="100" y="220" width="150" height="50" as="geometry" />
        </mxCell>
        
        <mxCell id="worker-simulation" value="SimulationWorker" style="rounded=1;whiteSpace=wrap;html=1;fillColor=#FFE6CC;strokeColor=#D79B00;fontColor=#000000;" vertex="1" parent="1">
          <mxGeometry x="280" y="220" width="150" height="50" as="geometry" />
        </mxCell>
        
        <mxCell id="worker-alpha-import" value="AlphaESS ImportWorker" style="rounded=1;whiteSpace=wrap;html=1;fillColor=#FFE6CC;strokeColor=#D79B00;fontColor=#000000;" vertex="1" parent="1">
          <mxGeometry x="460" y="220" width="150" height="50" as="geometry" />
        </mxCell>
        
        <mxCell id="worker-alpha-export" value="AlphaESS ExportWorker" style="rounded=1;whiteSpace=wrap;html=1;fillColor=#FFE6CC;strokeColor=#D79B00;fontColor=#000000;" vertex="1" parent="1">
          <mxGeometry x="640" y="220" width="150" height="50" as="geometry" />
        </mxCell>
        
        <mxCell id="worker-alpha-generation" value="AlphaESS GenerationWorker" style="rounded=1;whiteSpace=wrap;html=1;fillColor=#FFE6CC;strokeColor=#D79B00;fontColor=#000000;" vertex="1" parent="1">
          <mxGeometry x="820" y="220" width="150" height="50" as="geometry" />
        </mxCell>
        
        <mxCell id="worker-esbn-import" value="ESBN ImportWorker" style="rounded=1;whiteSpace=wrap;html=1;fillColor=#FFE6CC;strokeColor=#D79B00;fontColor=#000000;" vertex="1" parent="1">
          <mxGeometry x="1000" y="220" width="150" height="50" as="geometry" />
        </mxCell>
        
        <mxCell id="worker-ha-generation" value="HomeAssistant GenerationWorker" style="rounded=1;whiteSpace=wrap;html=1;fillColor=#FFE6CC;strokeColor=#D79B00;fontColor=#000000;" vertex="1" parent="1">
          <mxGeometry x="1180" y="220" width="150" height="50" as="geometry" />
        </mxCell>
        
        <mxCell id="worker-abstract" value="AbstractGenerationWorker (Abstract)" style="rounded=1;whiteSpace=wrap;html=1;fillColor=#F8CECC;strokeColor=#B85450;fontColor=#000000;" vertex="1" parent="1">
          <mxGeometry x="1360" y="220" width="180" height="50" as="geometry" />
        </mxCell>
        
        <!-- Database Tables Layer -->
        <mxCell id="table-scenarios" value="scenarios" style="rounded=1;whiteSpace=wrap;html=1;fillColor=#D5E8D4;strokeColor=#82B366;fontColor=#000000;" vertex="1" parent="1">
          <mxGeometry x="100" y="400" width="120" height="50" as="geometry" />
        </mxCell>
        
        <mxCell id="table-costings" value="costings" style="rounded=1;whiteSpace=wrap;html=1;fillColor=#D5E8D4;strokeColor=#82B366;fontColor=#000000;" vertex="1" parent="1">
          <mxGeometry x="250" y="400" width="120" height="50" as="geometry" />
        </mxCell>
        
        <mxCell id="table-priceplans" value="PricePlans" style="rounded=1;whiteSpace=wrap;html=1;fillColor=#D5E8D4;strokeColor=#82B366;fontColor=#000000;" vertex="1" parent="1">
          <mxGeometry x="400" y="400" width="120" height="50" as="geometry" />
        </mxCell>
        
        <mxCell id="table-dayrates" value="DayRates" style="rounded=1;whiteSpace=wrap;html=1;fillColor=#D5E8D4;strokeColor=#82B366;fontColor=#000000;" vertex="1" parent="1">
          <mxGeometry x="550" y="400" width="120" height="50" as="geometry" />
        </mxCell>
        
        <mxCell id="table-batteries" value="batteries" style="rounded=1;whiteSpace=wrap;html=1;fillColor=#D5E8D4;strokeColor=#82B366;fontColor=#000000;" vertex="1" parent="1">
          <mxGeometry x="700" y="400" width="120" height="50" as="geometry" />
        </mxCell>
        
        <mxCell id="table-panels" value="panels" style="rounded=1;whiteSpace=wrap;html=1;fillColor=#D5E8D4;strokeColor=#82B366;fontColor=#000000;" vertex="1" parent="1">
          <mxGeometry x="850" y="400" width="120" height="50" as="geometry" />
        </mxCell>
        
        <mxCell id="table-inverters" value="inverters" style="rounded=1;whiteSpace=wrap;html=1;fillColor=#D5E8D4;strokeColor=#82B366;fontColor=#000000;" vertex="1" parent="1">
          <mxGeometry x="1000" y="400" width="120" height="50" as="geometry" />
        </mxCell>
        
        <mxCell id="table-loadprofile" value="loadprofile" style="rounded=1;whiteSpace=wrap;html=1;fillColor=#D5E8D4;strokeColor=#82B366;fontColor=#000000;" vertex="1" parent="1">
          <mxGeometry x="1150" y="400" width="120" height="50" as="geometry" />
        </mxCell>
        
        <mxCell id="table-loadprofiledata" value="loadprofiledata" style="rounded=1;whiteSpace=wrap;html=1;fillColor=#D5E8D4;strokeColor=#82B366;fontColor=#000000;" vertex="1" parent="1">
          <mxGeometry x="1300" y="400" width="120" height="50" as="geometry" />
        </mxCell>
        
        <mxCell id="table-paneldata" value="paneldata" style="rounded=1;whiteSpace=wrap;html=1;fillColor=#D5E8D4;strokeColor=#82B366;fontColor=#000000;" vertex="1" parent="1">
          <mxGeometry x="1450" y="400" width="120" height="50" as="geometry" />
        </mxCell>
        
        <mxCell id="table-alphaess-raw" value="alphaESSRawEnergy" style="rounded=1;whiteSpace=wrap;html=1;fillColor=#D5E8D4;strokeColor=#82B366;fontColor=#000000;" vertex="1" parent="1">
          <mxGeometry x="1600" y="400" width="120" height="50" as="geometry" />
        </mxCell>
        
        <mxCell id="table-alphaess-power" value="alphaESSRawPower" style="rounded=1;whiteSpace=wrap;html=1;fillColor=#D5E8D4;strokeColor=#82B366;fontColor=#000000;" vertex="1" parent="1">
          <mxGeometry x="1750" y="400" width="120" height="50" as="geometry" />
        </mxCell>
        
        <mxCell id="table-alphaess-transformed" value="alphaESSTransformedData" style="rounded=1;whiteSpace=wrap;html=1;fillColor=#D5E8D4;strokeColor=#82B366;fontColor=#000000;" vertex="1" parent="1">
          <mxGeometry x="1900" y="400" width="120" height="50" as="geometry" />
        </mxCell>
        
        <mxCell id="table-junction" value="Junction Tables&#10;(scenario2battery,&#10;scenario2panel, etc.)" style="rounded=1;whiteSpace=wrap;html=1;fillColor=#FFF2CC;strokeColor=#D6B656;fontColor=#000000;" vertex="1" parent="1">
          <mxGeometry x="2050" y="400" width="150" height="80" as="geometry" />
        </mxCell>
        
        <!-- Connection Lines with DAO Labels -->
        
        <!-- UI Main Comparison to scenarios via ScenarioDAO -->
        <mxCell id="edge1" style="endArrow=classic;html=1;rounded=1;entryX=0.5;entryY=0;entryDx=0;entryDy=0;exitX=0.5;exitY=1;exitDx=0;exitDy=0;" edge="1" parent="1" source="ui-main-comparison" target="table-scenarios">
          <mxGeometry width="50" height="50" relative="1" as="geometry">
            <mxPoint x="300" y="300" as="sourcePoint" />
            <mxPoint x="350" y="250" as="targetPoint" />
          </mxGeometry>
        </mxCell>
        <mxCell id="edge1-label" value="ScenarioDAO&#10;loadScenarios()" style="edgeLabel;html=1;align=center;verticalAlign=middle;resizable=0;points=[];fontSize=10;" vertex="1" connectable="0" parent="edge1">
          <mxGeometry x="-0.1" y="-2" relative="1" as="geometry">
            <mxPoint as="offset" />
          </mxGeometry>
        </mxCell>
        
        <!-- UI Main Comparison to costings via CostingDAO -->
        <mxCell id="edge2" style="endArrow=classic;html=1;rounded=1;entryX=0.5;entryY=0;entryDx=0;entryDy=0;exitX=0.8;exitY=1;exitDx=0;exitDy=0;" edge="1" parent="1" source="ui-main-comparison" target="table-costings">
          <mxGeometry width="50" height="50" relative="1" as="geometry">
            <mxPoint x="300" y="300" as="sourcePoint" />
            <mxPoint x="350" y="250" as="targetPoint" />
          </mxGeometry>
        </mxCell>
        <mxCell id="edge2-label" value="CostingDAO&#10;loadCostings()" style="edgeLabel;html=1;align=center;verticalAlign=middle;resizable=0;points=[];fontSize=10;" vertex="1" connectable="0" parent="edge2">
          <mxGeometry x="-0.1" y="-2" relative="1" as="geometry">
            <mxPoint as="offset" />
          </mxGeometry>
        </mxCell>
        
        <!-- UI Price Plan to PricePlans via PricePlanDAO -->
        <mxCell id="edge3" style="endArrow=classic;html=1;rounded=1;entryX=0.5;entryY=0;entryDx=0;entryDy=0;exitX=0.5;exitY=1;exitDx=0;exitDy=0;" edge="1" parent="1" source="ui-price-plan" target="table-priceplans">
          <mxGeometry width="50" height="50" relative="1" as="geometry">
            <mxPoint x="300" y="300" as="sourcePoint" />
            <mxPoint x="350" y="250" as="targetPoint" />
          </mxGeometry>
        </mxCell>
        <mxCell id="edge3-label" value="PricePlanDAO&#10;loadPricePlans()" style="edgeLabel;html=1;align=center;verticalAlign=middle;resizable=0;points=[];fontSize=10;" vertex="1" connectable="0" parent="edge3">
          <mxGeometry x="-0.1" y="-2" relative="1" as="geometry">
            <mxPoint as="offset" />
          </mxGeometry>
        </mxCell>
        
        <!-- UI Price Plan to DayRates via PricePlanDAO -->
        <mxCell id="edge4" style="endArrow=classic;html=1;rounded=1;entryX=0.2;entryY=0;entryDx=0;entryDy=0;exitX=0.8;exitY=1;exitDx=0;exitDy=0;" edge="1" parent="1" source="ui-price-plan" target="table-dayrates">
          <mxGeometry width="50" height="50" relative="1" as="geometry">
            <mxPoint x="300" y="300" as="sourcePoint" />
            <mxPoint x="350" y="250" as="targetPoint" />
          </mxGeometry>
        </mxCell>
        <mxCell id="edge4-label" value="PricePlanDAO&#10;updateDayRate()" style="edgeLabel;html=1;align=center;verticalAlign=middle;resizable=0;points=[];fontSize=10;" vertex="1" connectable="0" parent="edge4">
          <mxGeometry x="-0.1" y="-2" relative="1" as="geometry">
            <mxPoint as="offset" />
          </mxGeometry>
        </mxCell>
        
        <!-- UI Battery to batteries via ScenarioDAO -->
        <mxCell id="edge5" style="endArrow=classic;html=1;rounded=1;entryX=0.5;entryY=0;entryDx=0;entryDy=0;exitX=0.3;exitY=1;exitDx=0;exitDy=0;" edge="1" parent="1" source="ui-battery" target="table-batteries">
          <mxGeometry width="50" height="50" relative="1" as="geometry">
            <mxPoint x="300" y="300" as="sourcePoint" />
            <mxPoint x="350" y="250" as="targetPoint" />
          </mxGeometry>
        </mxCell>
        <mxCell id="edge5-label" value="ScenarioDAO&#10;saveBatteryForScenario()" style="edgeLabel;html=1;align=center;verticalAlign=middle;resizable=0;points=[];fontSize=10;" vertex="1" connectable="0" parent="edge5">
          <mxGeometry x="-0.1" y="-2" relative="1" as="geometry">
            <mxPoint as="offset" />
          </mxGeometry>
        </mxCell>
        
        <!-- UI Panel to panels via ScenarioDAO -->
        <mxCell id="edge6" style="endArrow=classic;html=1;rounded=1;entryX=0.5;entryY=0;entryDx=0;entryDy=0;exitX=0.3;exitY=1;exitDx=0;exitDy=0;" edge="1" parent="1" source="ui-panel" target="table-panels">
          <mxGeometry width="50" height="50" relative="1" as="geometry">
            <mxPoint x="300" y="300" as="sourcePoint" />
            <mxPoint x="350" y="250" as="targetPoint" />
          </mxGeometry>
        </mxCell>
        <mxCell id="edge6-label" value="ScenarioDAO&#10;savePanel()" style="edgeLabel;html=1;align=center;verticalAlign=middle;resizable=0;points=[];fontSize=10;" vertex="1" connectable="0" parent="edge6">
          <mxGeometry x="-0.1" y="-2" relative="1" as="geometry">
            <mxPoint as="offset" />
          </mxGeometry>
        </mxCell>
        
        <!-- UI Panel to paneldata via ScenarioDAO -->
        <mxCell id="edge7" style="endArrow=classic;html=1;rounded=1;entryX=0.1;entryY=0;entryDx=0;entryDy=0;exitX=0.8;exitY=1;exitDx=0;exitDy=0;" edge="1" parent="1" source="ui-panel" target="table-paneldata">
          <mxGeometry width="50" height="50" relative="1" as="geometry">
            <mxPoint x="300" y="300" as="sourcePoint" />
            <mxPoint x="350" y="250" as="targetPoint" />
          </mxGeometry>
        </mxCell>
        <mxCell id="edge7-label" value="ScenarioDAO&#10;savePanelData()" style="edgeLabel;html=1;align=center;verticalAlign=middle;resizable=0;points=[];fontSize=10;" vertex="1" connectable="0" parent="edge7">
          <mxGeometry x="-0.1" y="-2" relative="1" as="geometry">
            <mxPoint as="offset" />
          </mxGeometry>
        </mxCell>
        
        <!-- UI Inverter to inverters via ScenarioDAO -->
        <mxCell id="edge8" style="endArrow=classic;html=1;rounded=1;entryX=0.5;entryY=0;entryDx=0;entryDy=0;exitX=0.2;exitY=1;exitDx=0;exitDy=0;" edge="1" parent="1" source="ui-inverter" target="table-inverters">
          <mxGeometry width="50" height="50" relative="1" as="geometry">
            <mxPoint x="300" y="300" as="sourcePoint" />
            <mxPoint x="350" y="250" as="targetPoint" />
          </mxGeometry>
        </mxCell>
        <mxCell id="edge8-label" value="ScenarioDAO&#10;saveInverter()" style="edgeLabel;html=1;align=center;verticalAlign=middle;resizable=0;points=[];fontSize=10;" vertex="1" connectable="0" parent="edge8">
          <mxGeometry x="-0.1" y="-2" relative="1" as="geometry">
            <mxPoint as="offset" />
          </mxGeometry>
        </mxCell>
        
        <!-- UI Load Profile to loadprofile via ScenarioDAO -->
        <mxCell id="edge9" style="endArrow=classic;html=1;rounded=1;entryX=0.8;entryY=0;entryDx=0;entryDy=0;exitX=0.2;exitY=1;exitDx=0;exitDy=0;" edge="1" parent="1" source="ui-loadprofile" target="table-loadprofile">
          <mxGeometry width="50" height="50" relative="1" as="geometry">
            <mxPoint x="300" y="300" as="sourcePoint" />
            <mxPoint x="350" y="250" as="targetPoint" />
          </mxGeometry>
        </mxCell>
        <mxCell id="edge9-label" value="ScenarioDAO&#10;saveLoadProfile()" style="edgeLabel;html=1;align=center;verticalAlign=middle;resizable=0;points=[];fontSize=10;" vertex="1" connectable="0" parent="edge9">
          <mxGeometry x="-0.1" y="-2" relative="1" as="geometry">
            <mxPoint as="offset" />
          </mxGeometry>
        </mxCell>
        
        <!-- UI Load Profile to loadprofiledata via ScenarioDAO -->
        <mxCell id="edge10" style="endArrow=classic;html=1;rounded=1;entryX=0.5;entryY=0;entryDx=0;entryDy=0;exitX=0.5;exitY=1;exitDx=0;exitDy=0;" edge="1" parent="1" source="ui-loadprofile" target="table-loadprofiledata">
          <mxGeometry width="50" height="50" relative="1" as="geometry">
            <mxPoint x="300" y="300" as="sourcePoint" />
            <mxPoint x="350" y="250" as="targetPoint" />
          </mxGeometry>
        </mxCell>
        <mxCell id="edge10-label" value="ScenarioDAO&#10;createLoadProfileDataEntries()" style="edgeLabel;html=1;align=center;verticalAlign=middle;resizable=0;points=[];fontSize=10;" vertex="1" connectable="0" parent="edge10">
          <mxGeometry x="-0.1" y="-2" relative="1" as="geometry">
            <mxPoint as="offset" />
          </mxGeometry>
        </mxCell>
        
        <!-- Worker Connections -->
        
        <!-- CostingWorker to costings via CostingDAO -->
        <mxCell id="edge11" style="endArrow=classic;html=1;rounded=1;entryX=0.5;entryY=0;entryDx=0;entryDy=0;exitX=0.8;exitY=1;exitDx=0;exitDy=0;" edge="1" parent="1" source="worker-costing" target="table-costings">
          <mxGeometry width="50" height="50" relative="1" as="geometry">
            <mxPoint x="300" y="300" as="sourcePoint" />
            <mxPoint x="350" y="250" as="targetPoint" />
          </mxGeometry>
        </mxCell>
        <mxCell id="edge11-label" value="CostingDAO&#10;saveCosting()" style="edgeLabel;html=1;align=center;verticalAlign=middle;resizable=0;points=[];fontSize=10;" vertex="1" connectable="0" parent="edge11">
          <mxGeometry x="-0.1" y="-2" relative="1" as="geometry">
            <mxPoint as="offset" />
          </mxGeometry>
        </mxCell>
        
        <!-- SimulationWorker to scenarios via ScenarioDAO -->
        <mxCell id="edge12" style="endArrow=classic;html=1;rounded=1;entryX=0.8;entryY=0;entryDx=0;entryDy=0;exitX=0.2;exitY=1;exitDx=0;exitDy=0;" edge="1" parent="1" source="worker-simulation" target="table-scenarios">
          <mxGeometry width="50" height="50" relative="1" as="geometry">
            <mxPoint x="300" y="300" as="sourcePoint" />
            <mxPoint x="350" y="250" as="targetPoint" />
          </mxGeometry>
        </mxCell>
        <mxCell id="edge12-label" value="ScenarioDAO&#10;getAllScenariosThatNeedSimulation()" style="edgeLabel;html=1;align=center;verticalAlign=middle;resizable=0;points=[];fontSize=10;" vertex="1" connectable="0" parent="edge12">
          <mxGeometry x="-0.1" y="-2" relative="1" as="geometry">
            <mxPoint as="offset" />
          </mxGeometry>
        </mxCell>
        
        <!-- AlphaESS ImportWorker to alphaESSRawEnergy via AlphaEssDAO -->
        <mxCell id="edge13" style="endArrow=classic;html=1;rounded=1;entryX=0.2;entryY=0;entryDx=0;entryDy=0;exitX=0.8;exitY=1;exitDx=0;exitDy=0;" edge="1" parent="1" source="worker-alpha-import" target="table-alphaess-raw">
          <mxGeometry width="50" height="50" relative="1" as="geometry">
            <mxPoint x="300" y="300" as="sourcePoint" />
            <mxPoint x="350" y="250" as="targetPoint" />
          </mxGeometry>
        </mxCell>
        <mxCell id="edge13-label" value="AlphaEssDAO&#10;addRawEnergy()" style="edgeLabel;html=1;align=center;verticalAlign=middle;resizable=0;points=[];fontSize=10;" vertex="1" connectable="0" parent="edge13">
          <mxGeometry x="-0.1" y="-2" relative="1" as="geometry">
            <mxPoint as="offset" />
          </mxGeometry>
        </mxCell>
        
        <!-- AlphaESS ImportWorker to alphaESSRawPower via AlphaEssDAO -->
        <mxCell id="edge14" style="endArrow=classic;html=1;rounded=1;entryX=0.2;entryY=0;entryDx=0;entryDy=0;exitX=0.9;exitY=1;exitDx=0;exitDy=0;" edge="1" parent="1" source="worker-alpha-import" target="table-alphaess-power">
          <mxGeometry width="50" height="50" relative="1" as="geometry">
            <mxPoint x="300" y="300" as="sourcePoint" />
            <mxPoint x="350" y="250" as="targetPoint" />
          </mxGeometry>
        </mxCell>
        <mxCell id="edge14-label" value="AlphaEssDAO&#10;addRawPower()" style="edgeLabel;html=1;align=center;verticalAlign=middle;resizable=0;points=[];fontSize=10;" vertex="1" connectable="0" parent="edge14">
          <mxGeometry x="-0.1" y="-2" relative="1" as="geometry">
            <mxPoint as="offset" />
          </mxGeometry>
        </mxCell>
        
        <!-- AlphaESS GenerationWorker to loadprofiledata via ScenarioDAO -->
        <mxCell id="edge15" style="endArrow=classic;html=1;rounded=1;entryX=0.8;entryY=0;entryDx=0;entryDy=0;exitX=0.8;exitY=1;exitDx=0;exitDy=0;" edge="1" parent="1" source="worker-alpha-generation" target="table-loadprofiledata">
          <mxGeometry width="50" height="50" relative="1" as="geometry">
            <mxPoint x="300" y="300" as="sourcePoint" />
            <mxPoint x="350" y="250" as="targetPoint" />
          </mxGeometry>
        </mxCell>
        <mxCell id="edge15-label" value="ScenarioDAO&#10;createLoadProfileDataEntries()" style="edgeLabel;html=1;align=center;verticalAlign=middle;resizable=0;points=[];fontSize=10;" vertex="1" connectable="0" parent="edge15">
          <mxGeometry x="-0.1" y="-2" relative="1" as="geometry">
            <mxPoint as="offset" />
          </mxGeometry>
        </mxCell>
        
        <!-- AlphaESS GenerationWorker to paneldata via ScenarioDAO -->
        <mxCell id="edge16" style="endArrow=classic;html=1;rounded=1;entryX=0.8;entryY=0;entryDx=0;entryDy=0;exitX=0.9;exitY=1;exitDx=0;exitDy=0;" edge="1" parent="1" source="worker-alpha-generation" target="table-paneldata">
          <mxGeometry width="50" height="50" relative="1" as="geometry">
            <mxPoint x="300" y="300" as="sourcePoint" />
            <mxPoint x="350" y="250" as="targetPoint" />
          </mxGeometry>
        </mxCell>
        <mxCell id="edge16-label" value="ScenarioDAO&#10;savePanelData()" style="edgeLabel;html=1;align=center;verticalAlign=middle;resizable=0;points=[];fontSize=10;" vertex="1" connectable="0" parent="edge16">
          <mxGeometry x="-0.1" y="-2" relative="1" as="geometry">
            <mxPoint as="offset" />
          </mxGeometry>
        </mxCell>
        
        <!-- HomeAssistant GenerationWorker to alphaESSTransformedData via AlphaEssDAO -->
        <mxCell id="edge17" style="endArrow=classic;html=1;rounded=1;entryX=0.2;entryY=0;entryDx=0;entryDy=0;exitX=0.8;exitY=1;exitDx=0;exitDy=0;" edge="1" parent="1" source="worker-ha-generation" target="table-alphaess-transformed">
          <mxGeometry width="50" height="50" relative="1" as="geometry">
            <mxPoint x="300" y="300" as="sourcePoint" />
            <mxPoint x="350" y="250" as="targetPoint" />
          </mxGeometry>
        </mxCell>
        <mxCell id="edge17-label" value="AlphaEssDAO&#10;getAlphaESSTransformedData()" style="edgeLabel;html=1;align=center;verticalAlign=middle;resizable=0;points=[];fontSize=10;" vertex="1" connectable="0" parent="edge17">
          <mxGeometry x="-0.1" y="-2" relative="1" as="geometry">
            <mxPoint as="offset" />
          </mxGeometry>
        </mxCell>
        
        <!-- AbstractGenerationWorker to scenarios via ScenarioDAO -->
        <mxCell id="edge18" style="endArrow=classic;html=1;rounded=1;entryX=1;entryY=0;entryDx=0;entryDy=0;exitX=0.1;exitY=1;exitDx=0;exitDy=0;" edge="1" parent="1" source="worker-abstract" target="table-scenarios">
          <mxGeometry width="50" height="50" relative="1" as="geometry">
            <mxPoint x="300" y="300" as="sourcePoint" />
            <mxPoint x="350" y="250" as="targetPoint" />
          </mxGeometry>
        </mxCell>
        <mxCell id="edge18-label" value="ScenarioDAO&#10;insertScenarioAndReturnID()" style="edgeLabel;html=1;align=center;verticalAlign=middle;resizable=0;points=[];fontSize=10;" vertex="1" connectable="0" parent="edge18">
          <mxGeometry x="-0.1" y="-2" relative="1" as="geometry">
            <mxPoint as="offset" />
          </mxGeometry>
        </mxCell>
        
        <!-- Legend -->
        <mxCell id="legend-ui" value="UI Components" style="rounded=1;whiteSpace=wrap;html=1;fillColor=#E1D5E7;strokeColor=#9673A6;fontColor=#000000;" vertex="1" parent="1">
          <mxGeometry x="100" y="550" width="150" height="30" as="geometry" />
        </mxCell>
        
        <mxCell id="legend-worker" value="Worker Classes" style="rounded=1;whiteSpace=wrap;html=1;fillColor=#FFE6CC;strokeColor=#D79B00;fontColor=#000000;" vertex="1" parent="1">
          <mxGeometry x="270" y="550" width="150" height="30" as="geometry" />
        </mxCell>
        
        <mxCell id="legend-abstract" value="Abstract Classes" style="rounded=1;whiteSpace=wrap;html=1;fillColor=#F8CECC;strokeColor=#B85450;fontColor=#000000;" vertex="1" parent="1">
          <mxGeometry x="440" y="550" width="150" height="30" as="geometry" />
        </mxCell>
        
        <mxCell id="legend-tables" value="Database Tables" style="rounded=1;whiteSpace=wrap;html=1;fillColor=#D5E8D4;strokeColor=#82B366;fontColor=#000000;" vertex="1" parent="1">
          <mxGeometry x="610" y="550" width="150" height="30" as="geometry" />
        </mxCell>
        
        <mxCell id="legend-junction" value="Junction Tables" style="rounded=1;whiteSpace=wrap;html=1;fillColor=#FFF2CC;strokeColor=#D6B656;fontColor=#000000;" vertex="1" parent="1">
          <mxGeometry x="780" y="550" width="150" height="30" as="geometry" />
        </mxCell>
        
      </root>
    </mxGraphModel>
  </diagram>
</mxfile>